M48
;GenerationSoftware,Autodesk,EAGLE,9.1.0*%
;CreationDate,2019-04-11T17:51:25Z*%
FMAT,2
ICI,OFF
METRIC,TZ,000.000
T3C0.800
T2C1.041
T1C3.175
%
G90
M71
T1
X5000Y15000
X45000Y15000
T2
X6780Y6840
X6780Y20840
X42630Y21810
X42490Y8860
X11490Y18250
X15990Y18250
X11490Y11750
X15990Y11750
T3
X16460Y25590
X28960Y25590
X38490Y16270
X38490Y13730
X18520Y8430
X18520Y20930
X30520Y8190
X30520Y20690
X33560Y20570
X33560Y8070
X21560Y20810
X21560Y8310
X18430Y2640
X30930Y2640
M30